:SAMPLES-PER-SECOND 30
:FULLY-SPECIFIED
:DEGREES
177
root  13.06671083 37.51511161 -6.470799634 4.932569981 -19.35829926 -11.17389965
lowerback  9.97439003 1.126009941 -4.252009869
upperback  0.3448700011 0.8784710169 -2.185300112
thorax  -5.272099972 0.5044109821 -0.01666600071
lowerneck  -7.302130222 4.918950081 -9.856430054
upperneck  13.98880005 6.129630089 13.17080021
head  4.593520164 3.371180058 6.105820179
lclavicle  0 -9.442270133e-015 7.951389973e-016
lhumerus  -10.83460045 -19.07749939 84.28309631
lradius  2.708639602e-031 -2.2654173e-031 140.0919952
lwrist  -1.059337512e-030 -3.531125038e-031 0.1125430018
lhand  -1.496451383e-031 -27.76390076 20.11240005
lfingers  90 7.125020027 -90
lthumb  89.89689403 5.08795885 91.16245106
rclavicle  0 -9.442270133e-015 7.951389973e-016
rhumerus  -35.35490036 20.77700043 -58.8219986
rradius  -2.707888324e-031 2.266315261e-031 140.072998
rwrist  7.062250077e-031 -0 -12.06879997
rhand  -7.920061211e-032 -33.2840004 9.303460121
rfingers  -90 -7.125020027 -90
rthumb  -92.93752616 -24.25625642 -97.11982154
rfemur  8.706700325 5.19137001 29.03680038
rtibia  -0 0 47.15019989
rfoot  -0 -12.24009991 -15.71749973
rtoes  5.373923086 19.29304026 -105.8922705
lfemur  -43.28530121 -11.00479984 13.77439976
ltibia  -0 0 46.73949814
lfoot  -0 2.379790068 -12.76720047
ltoes  -4.250644065 -19.5611806 -102.515957
178
root  12.89353408 37.67288989 -6.41411083 5.413990021 -14.67129993 -11.13059998
lowerback  10.30430031 1.235470057 -4.359260082
upperback  0.3113659918 0.9581369758 -2.726399899
thorax  -5.488770008 0.542272985 -0.5426290035
lowerneck  -6.838049889 3.65760994 -10.37759972
upperneck  13.26509953 4.292379856 14.74880028
head  4.456520081 2.530630112 6.604109764
lclavicle  0 -9.442270133e-015 7.951389973e-016
lhumerus  -8.839690208 -21.68390083 83.95600128
lradius  2.666186464e-031 -2.315230826e-031 139.0299988
lwrist  -7.062250077e-031 3.531125038e-031 0.2501940131
lhand  -1.496451383e-031 -27.76390076 20.11240005
lfingers  90 7.125020027 -90
lthumb  89.89689403 5.08795885 91.16245106
rclavicle  0 -9.442270133e-015 7.951389973e-016
rhumerus  -31.7105999 17.71409988 -53.72639847
rradius  -2.722074481e-031 2.249256445e-031 140.4329987
rwrist  1.412450015e-030 -1.765562519e-031 -14.8781004
rhand  -7.920061211e-032 -33.2840004 9.303460121
rfingers  -90 -7.125020027 -90
rthumb  -92.93752616 -24.25625642 -97.11982154
rfemur  8.479330063 3.766299963 30.38459969
rtibia  -0 0 45.87960052
rfoot  -0 -10.24619961 -13.38230038
rtoes  5.373923086 19.29304026 -105.8922705
lfemur  -46.16320038 -11.36870003 13.75529957
ltibia  -0 0 45.64810181
lfoot  -0 6.049089909 -13.40270042
ltoes  -4.250644065 -19.5611806 -102.515957
179
root  12.72466614 37.84200113 -6.361288536 5.908339977 -10.38599968 -10.85900021
lowerback  10.6644001 1.455039978 -4.474770069
upperback  0.2949819863 1.174839973 -3.33039999
thorax  -5.704639912 0.6459940076 -1.155400038
lowerneck  -6.238130093 2.47081995 -10.90110016
upperneck  12.55889988 2.576309919 16.14100075
head  4.331799984 1.721109986 7.055039883
lclavicle  0 -9.442270133e-015 7.951389973e-016
lhumerus  -6.608329773 -23.96940041 83.21800232
lradius  2.630273021e-031 -2.355951585e-031 138.1490021
lwrist  -1.059337512e-030 -0 0.5954679847
lhand  -1.496451383e-031 -27.76390076 20.11240005
lfingers  90 7.125020027 -90
lthumb  89.89689403 5.08795885 91.16245106
rclavicle  0 -9.442270133e-015 7.951389973e-016
rhumerus  -27.64979935 14.61639977 -48.31999969
rradius  -2.724036411e-031 2.246879986e-031 140.4830017
rwrist  7.062250077e-031 -0 -17.85040092
rhand  -7.920061211e-032 -33.2840004 9.303460121
rfingers  -90 -7.125020027 -90
rthumb  -92.93752616 -24.25625642 -97.11982154
rfemur  8.024470329 2.720350027 31.3635006
rtibia  -0 0 44.70000076
rfoot  -0 -8.573419571 -11.03660011
rtoes  5.373923086 19.29304026 -105.8922705
lfemur  -48.74860001 -11.38630009 13.12940025
ltibia  -0 0 44.53210068
lfoot  -0 9.411230087 -13.70180035
ltoes  -4.250644065 -19.5611806 -102.515957
180
root  12.5696002 37.99466711 -6.313378041 6.349009991 -6.599540234 -10.59210014
lowerback  11.07559967 1.794170022 -4.329040051
upperback  0.4088459909 1.583639979 -3.937319994
thorax  -5.800710201 0.8343080282 -1.952190042
lowerneck  -5.57490015 1.392699957 -11.33010006
upperneck  11.64260006 1.060439944 17.21100044
head  4.146240234 0.9800080061 7.390610218
lclavicle  0 -9.442270133e-015 7.951389973e-016
lhumerus  -4.001009941 -25.83749962 82.07460022
lradius  2.598416586e-031 -2.391040627e-031 137.3800049
lwrist  -3.531125038e-031 -3.531125038e-031 0.9506030083
lhand  -1.496451383e-031 -27.76390076 20.11240005
lfingers  90 7.125020027 -90
lthumb  89.89689403 5.08795885 91.16245106
rclavicle  0 -9.442270133e-015 7.951389973e-016
rhumerus  -23.12599945 11.43859959 -42.85520172
rradius  -2.694233029e-031 2.28253202e-031 139.7290039
rwrist  7.062250077e-031 8.827812596e-032 -20.20389938
rhand  -7.920061211e-032 -33.2840004 9.303460121
rfingers  -90 -7.125020027 -90
rthumb  -92.93752616 -24.25625642 -97.11982154
rfemur  7.513199806 2.195600033 32.2358017
rtibia  -0 0 43.68180084
rfoot  -0 -7.311270237 -8.824370384
rtoes  5.373923086 19.29304026 -105.8922705
lfemur  -50.81969833 -11.09259987 12.14649963
ltibia  -0 0 43.40890121
lfoot  -0 12.58450031 -14.15540028
ltoes  -4.250644065 -19.5611806 -102.515957
181
root  12.43140003 38.12022172 -6.276777598 6.889830112 -3.114939928 -10.03530025
lowerback  11.32549953 2.140539885 -4.174439907
upperback  0.5564370155 2.016249895 -4.578110218
thorax  -5.756949902 1.033599973 -2.792479992
lowerneck  -4.536520004 0.414169997 -11.95390034
upperneck  10.4229002 -0.2597370148 17.99559975
head  3.802809954 0.2811549902 7.667150021
lclavicle  0 -9.442270133e-015 7.951389973e-016
lhumerus  -1.407289982 -27.19610023 80.78520203
lradius  2.574289996e-031 -2.416997115e-031 136.8049927
lwrist  -3.531125038e-031 -3.531125038e-031 1.405300021
lhand  -1.496451383e-031 -27.76390076 20.11240005
lfingers  90 7.125020027 -90
lthumb  89.89689403 5.08795885 91.16245106
rclavicle  0 -9.442270133e-015 7.951389973e-016
rhumerus  -18.2840004 8.368780136 -37.56779861
rradius  -2.623312197e-031 2.363699886e-031 137.9799957
rwrist  0 -0 -21.17819977
rhand  -7.920061211e-032 -33.2840004 9.303460121
rfingers  -90 -7.125020027 -90
rthumb  -92.93752616 -24.25625642 -97.11982154
rfemur  6.797440052 2.100579977 32.76979828
rtibia  -0 0 42.86330032
rfoot  -0 -6.710730076 -7.008450031
rtoes  5.373923086 19.29304026 -105.8922705
lfemur  -52.69110107 -10.65149975 10.6243
ltibia  -0 0 42.26150131
lfoot  -0 15.81260014 -14.20300007
ltoes  -4.250644065 -19.5611806 -102.515957
